<svg width="43" height="42" viewBox="0 0 43 42" fill="none" xmlns="http://www.w3.org/2000/svg">
<circle cx="21.3047" cy="21" r="20" stroke="#0181A1" stroke-width="2"/>
<path fill-rule="evenodd" clip-rule="evenodd" d="M21.3047 25C20.7113 25 20.1313 24.8241 19.638 24.4944C19.1446 24.1648 18.7601 23.6962 18.533 23.1481C18.306 22.5999 18.2466 21.9967 18.3623 21.4147C18.4781 20.8328 18.7638 20.2982 19.1834 19.8787C19.6029 19.4591 20.1375 19.1734 20.7194 19.0576C21.3014 18.9419 21.9046 19.0013 22.4527 19.2284C23.0009 19.4554 23.4695 19.8399 23.7991 20.3333C24.1287 20.8266 24.3047 21.4067 24.3047 22C24.3047 22.7956 23.9886 23.5587 23.426 24.1213C22.8634 24.6839 22.1003 25 21.3047 25ZM21.3047 17C20.3158 17 19.3491 17.2932 18.5268 17.8427C17.7046 18.3921 17.0637 19.173 16.6853 20.0866C16.3069 21.0002 16.2078 22.0055 16.4008 22.9755C16.5937 23.9454 17.0699 24.8363 17.7692 25.5355C18.4684 26.2348 19.3593 26.711 20.3292 26.9039C21.2991 27.0969 22.3045 26.9978 23.2181 26.6194C24.1317 26.241 24.9126 25.6001 25.462 24.7779C26.0114 23.9556 26.3047 22.9889 26.3047 22C26.3047 20.6739 25.7779 19.4021 24.8402 18.4645C23.9025 17.5268 22.6308 17 21.3047 17ZM13.3047 28V17H17.8347L19.8347 14H22.7747L24.7747 17H29.3047V28H13.3047ZM29.3047 15H25.8347L24.4347 12.89C24.2524 12.6167 24.0055 12.3926 23.716 12.2374C23.4265 12.0821 23.1032 12.0006 22.7747 12H19.8347C19.5062 12.0006 19.1829 12.0821 18.8934 12.2374C18.6038 12.3926 18.357 12.6167 18.1747 12.89L16.7747 15H13.3047C12.7743 15 12.2655 15.2107 11.8905 15.5858C11.5154 15.9609 11.3047 16.4696 11.3047 17V28C11.3047 28.5304 11.5154 29.0391 11.8905 29.4142C12.2655 29.7893 12.7743 30 13.3047 30H29.3047C29.8351 30 30.3438 29.7893 30.7189 29.4142C31.094 29.0391 31.3047 28.5304 31.3047 28V17C31.3047 16.4696 31.094 15.9609 30.7189 15.5858C30.3438 15.2107 29.8351 15 29.3047 15Z" fill="#0181A1"/>
</svg>
