<svg width="30" height="31" viewBox="0 0 30 31" fill="none" xmlns="http://www.w3.org/2000/svg">
<path fill-rule="evenodd" clip-rule="evenodd" d="M14.1113 0.746103C12.1422 0.743887 10.1921 1.13255 8.37427 1.88956C6.55641 2.64657 4.9069 3.75687 3.52133 5.1561L0.611328 2.2461V11.2461H9.61133L5.63633 7.2711C7.0311 5.87295 8.74938 4.84066 10.6388 4.26578C12.5281 3.6909 14.5302 3.59122 16.4673 3.97558C18.4044 4.35993 20.2168 5.21644 21.7435 6.46913C23.2703 7.72181 24.4643 9.33195 25.2196 11.1567C25.9749 12.9815 26.2681 14.9644 26.0734 16.9297C25.8786 18.8949 25.2018 20.7818 24.103 22.4227C23.0041 24.0637 21.5173 25.4082 19.7744 26.3368C18.0314 27.2654 16.0862 27.7495 14.1113 27.7461V30.7461C18.0896 30.7461 21.9049 29.1657 24.7179 26.3527C27.531 23.5397 29.1113 19.7244 29.1113 15.7461C29.1113 11.7679 27.531 7.95255 24.7179 5.1395C21.9049 2.32646 18.0896 0.746103 14.1113 0.746103Z" fill="#0281A6"/>
</svg>
