<svg width="49" height="49" viewBox="0 0 49 49" fill="none" xmlns="http://www.w3.org/2000/svg">
<path fill-rule="evenodd" clip-rule="evenodd" d="M24.623 30.9023C26.2143 30.9023 27.7405 30.2702 28.8657 29.145C29.9909 28.0198 30.623 26.4936 30.623 24.9023V12.9023C30.623 11.311 29.9909 9.78492 28.8657 8.6597C27.7405 7.53448 26.2143 6.90234 24.623 6.90234C23.0317 6.90234 21.5056 7.53448 20.3804 8.6597C19.2552 9.78492 18.623 11.311 18.623 12.9023V24.9023C18.623 26.4936 19.2552 28.0198 20.3804 29.145C21.5056 30.2702 23.0317 30.9023 24.623 30.9023ZM22.623 12.9023C22.623 12.3719 22.8338 11.8632 23.2088 11.4881C23.5839 11.1131 24.0926 10.9023 24.623 10.9023C25.1535 10.9023 25.6622 11.1131 26.0373 11.4881C26.4123 11.8632 26.623 12.3719 26.623 12.9023V24.9023C26.623 25.4328 26.4123 25.9415 26.0373 26.3166C25.6622 26.6916 25.1535 26.9023 24.623 26.9023C24.0926 26.9023 23.5839 26.6916 23.2088 26.3166C22.8338 25.9415 22.623 25.4328 22.623 24.9023V12.9023ZM24.623 34.9023C27.2752 34.9023 29.8188 33.8488 31.6941 31.9734C33.5695 30.098 34.623 27.5545 34.623 24.9023H38.623C38.6191 28.266 37.4042 31.5159 35.2007 34.0573C32.9971 36.5987 29.9522 38.2618 26.623 38.7423V44.9023H22.623V38.7423C19.2939 38.2618 16.249 36.5987 14.0454 34.0573C11.8419 31.5159 10.627 28.266 10.623 24.9023H14.623C14.623 27.5545 15.6766 30.098 17.552 31.9734C19.4273 33.8488 21.9709 34.9023 24.623 34.9023V34.9023Z" fill="white"/>
</svg>
